<?xml version="1.0" encoding="UTF-8"?>
<svg xmlns="http://www.w3.org/2000/svg" xmlns:xlink="http://www.w3.org/1999/xlink" width="25px" height="25px" viewBox="0 0 25 25" version="1.1">
<g id="surface1">
<path style=" stroke:none;fill-rule:nonzero;fill:rgb(94.509804%,92.54902%,92.54902%);fill-opacity:1;" d="M 18.0625 5.6875 C 17.375 5.6875 16.816406 6.25 16.816406 6.9375 C 16.816406 7.625 17.375 8.183594 18.0625 8.183594 C 18.75 8.183594 19.3125 7.625 19.3125 6.9375 C 19.3125 6.25 18.75 5.6875 18.0625 5.6875 Z M 22.851562 8.207031 C 22.832031 7.347656 22.675781 6.488281 22.371094 5.683594 C 22.109375 4.980469 21.699219 4.351562 21.164062 3.835938 C 20.648438 3.296875 20.019531 2.890625 19.316406 2.636719 C 18.511719 2.324219 17.652344 2.167969 16.792969 2.148438 L 12.5 2.082031 L 8.207031 2.148438 C 7.347656 2.167969 6.488281 2.324219 5.683594 2.636719 C 4.980469 2.890625 4.351562 3.296875 3.835938 3.835938 C 3.296875 4.351562 2.890625 4.980469 2.636719 5.683594 C 2.324219 6.488281 2.167969 7.347656 2.148438 8.207031 L 2.082031 12.5 L 2.148438 16.792969 C 2.167969 17.652344 2.324219 18.511719 2.636719 19.316406 C 2.890625 20.019531 3.296875 20.648438 3.835938 21.164062 C 4.351562 21.703125 4.980469 22.109375 5.683594 22.363281 C 6.488281 22.675781 7.347656 22.832031 8.207031 22.851562 L 12.5 22.917969 L 16.792969 22.851562 C 17.652344 22.832031 18.511719 22.675781 19.316406 22.363281 C 20.019531 22.109375 20.648438 21.703125 21.164062 21.164062 C 21.703125 20.648438 22.113281 20.019531 22.371094 19.316406 C 22.675781 18.511719 22.832031 17.652344 22.851562 16.792969 L 22.917969 12.5 Z M 20.980469 16.667969 C 20.96875 17.328125 20.851562 17.988281 20.628906 18.601562 C 20.460938 19.058594 20.191406 19.464844 19.847656 19.800781 C 19.503906 20.144531 19.097656 20.410156 18.648438 20.582031 C 18.023438 20.808594 17.363281 20.929688 16.707031 20.9375 L 12.542969 21 C 9.804688 21 9.417969 21 8.375 20.9375 C 7.6875 20.953125 7.003906 20.84375 6.351562 20.628906 C 5.925781 20.441406 5.535156 20.183594 5.207031 19.847656 C 4.859375 19.507812 4.597656 19.097656 4.4375 18.648438 C 4.183594 18.015625 4.042969 17.34375 4.019531 16.667969 L 3.960938 12.5 L 4.019531 8.332031 C 4.027344 7.660156 4.148438 6.988281 4.386719 6.351562 C 4.566406 5.914062 4.851562 5.523438 5.207031 5.207031 C 5.523438 4.851562 5.914062 4.566406 6.351562 4.371094 C 6.988281 4.144531 7.660156 4.027344 8.332031 4.019531 L 12.5 3.960938 L 16.667969 4.019531 C 17.328125 4.03125 17.988281 4.148438 18.601562 4.371094 C 19.074219 4.550781 19.503906 4.835938 19.847656 5.207031 C 20.1875 5.527344 20.453125 5.917969 20.628906 6.351562 C 20.855469 6.988281 20.972656 7.660156 20.980469 8.332031 L 21.039062 12.5 Z M 12.5 7.15625 C 9.546875 7.160156 7.160156 9.550781 7.167969 12.503906 C 7.171875 15.457031 9.566406 17.84375 12.519531 17.84375 C 15.460938 17.84375 17.855469 15.453125 17.855469 12.5 C 17.855469 11.078125 17.289062 9.71875 16.285156 8.714844 C 15.28125 7.710938 13.921875 7.152344 12.5 7.15625 Z M 12.5 15.96875 C 10.585938 15.96875 9.03125 14.414062 9.03125 12.5 C 9.03125 10.585938 10.585938 9.03125 12.5 9.03125 C 14.414062 9.03125 15.96875 10.585938 15.96875 12.5 C 15.96875 14.414062 14.414062 15.96875 12.5 15.96875 Z M 12.5 15.96875 "/>
</g>
</svg>
