<?xml version="1.0" encoding="UTF-8"?>
<svg xmlns="http://www.w3.org/2000/svg" xmlns:xlink="http://www.w3.org/1999/xlink" width="25px" height="25px" viewBox="0 0 25 25" version="1.1">
<g id="surface1">
<path style=" stroke:none;fill-rule:nonzero;fill:rgb(94.509804%,92.54902%,92.54902%);fill-opacity:1;" d="M 21.320312 2.082031 L 3.679688 2.082031 C 2.839844 2.074219 2.15625 2.738281 2.148438 3.570312 L 2.148438 21.429688 C 2.15625 22.261719 2.839844 22.925781 3.679688 22.917969 L 21.320312 22.917969 C 22.160156 22.925781 22.84375 22.261719 22.851562 21.429688 L 22.851562 3.570312 C 22.84375 2.738281 22.160156 2.074219 21.320312 2.082031 Z M 8.425781 19.523438 L 5.300781 19.523438 L 5.300781 10.148438 L 8.425781 10.148438 Z M 6.863281 8.832031 C 5.964844 8.832031 5.242188 8.105469 5.242188 7.207031 C 5.242188 6.308594 5.964844 5.582031 6.863281 5.582031 C 7.488281 5.511719 8.101562 5.804688 8.429688 6.339844 C 8.765625 6.867188 8.765625 7.546875 8.429688 8.078125 C 8.101562 8.613281 7.488281 8.902344 6.863281 8.832031 Z M 19.699219 19.523438 L 16.574219 19.523438 L 16.574219 14.492188 C 16.574219 13.226562 16.121094 12.40625 14.992188 12.40625 C 14.265625 12.410156 13.628906 12.863281 13.382812 13.542969 C 13.304688 13.785156 13.273438 14.042969 13.28125 14.300781 L 13.28125 19.507812 L 10.15625 19.507812 L 10.15625 10.132812 L 13.28125 10.132812 L 13.28125 11.457031 C 13.863281 10.453125 14.945312 9.855469 16.105469 9.894531 C 18.1875 9.894531 19.699219 11.238281 19.699219 14.128906 Z M 19.699219 19.523438 "/>
</g>
</svg>
