<?xml version="1.0" encoding="UTF-8"?>
<svg xmlns="http://www.w3.org/2000/svg" xmlns:xlink="http://www.w3.org/1999/xlink" width="25px" height="25px" viewBox="0 0 25 25" version="1.1">
<g id="surface1">
<path style=" stroke:none;fill-rule:nonzero;fill:rgb(94.509804%,92.54902%,92.54902%);fill-opacity:1;" d="M 22.917969 6.035156 C 22.136719 6.378906 21.308594 6.609375 20.460938 6.710938 C 21.355469 6.175781 22.023438 5.332031 22.339844 4.34375 C 21.507812 4.84375 20.582031 5.199219 19.625 5.386719 C 18.304688 3.953125 16.1875 3.597656 14.476562 4.515625 C 12.761719 5.429688 11.875 7.390625 12.332031 9.28125 C 8.894531 9.109375 5.695312 7.480469 3.535156 4.8125 C 3.15625 5.46875 2.957031 6.210938 2.957031 6.964844 C 2.957031 8.398438 3.667969 9.726562 4.855469 10.519531 C 4.175781 10.503906 3.511719 10.320312 2.910156 9.988281 L 2.910156 10.042969 C 2.929688 12.070312 4.363281 13.8125 6.351562 14.210938 C 5.984375 14.324219 5.597656 14.382812 5.207031 14.382812 C 4.9375 14.382812 4.667969 14.355469 4.402344 14.3125 C 4.972656 16.046875 6.570312 17.234375 8.398438 17.269531 C 6.890625 18.453125 5.035156 19.097656 3.125 19.101562 C 2.777344 19.109375 2.433594 19.085938 2.082031 19.042969 C 4.035156 20.304688 6.308594 20.96875 8.636719 20.96875 C 11.875 21 14.992188 19.730469 17.285156 17.441406 C 19.578125 15.160156 20.859375 12.042969 20.832031 8.808594 L 20.832031 8.25 C 21.652344 7.640625 22.359375 6.890625 22.917969 6.035156 Z M 22.917969 6.035156 "/>
</g>
</svg>
