<?xml version="1.0" standalone="no"?>
<svg xmlns:xlink="http://www.w3.org/1999/xlink" id="wave" style="transform:rotate(0deg); transition: 0.3s" viewBox="0 0 1440 490" version="1.1" xmlns="http://www.w3.org/2000/svg"><defs><linearGradient id="sw-gradient-0" x1="0" x2="0" y1="1" y2="0"><stop stop-color="rgba(243, 106, 62, 1)" offset="0%"/><stop stop-color="rgba(255, 179, 11, 1)" offset="100%"/></linearGradient></defs><path style="transform:translate(0, 0px); opacity:1" fill="url(#sw-gradient-0)" d="M0,98L26.7,130.7C53.3,163,107,229,160,212.3C213.3,196,267,98,320,57.2C373.3,16,427,33,480,73.5C533.3,114,587,180,640,187.8C693.3,196,747,147,800,122.5C853.3,98,907,98,960,147C1013.3,196,1067,294,1120,302.2C1173.3,310,1227,229,1280,196C1333.3,163,1387,180,1440,171.5C1493.3,163,1547,131,1600,122.5C1653.3,114,1707,131,1760,179.7C1813.3,229,1867,310,1920,318.5C1973.3,327,2027,261,2080,245C2133.3,229,2187,261,2240,228.7C2293.3,196,2347,98,2400,73.5C2453.3,49,2507,98,2560,155.2C2613.3,212,2667,278,2720,261.3C2773.3,245,2827,147,2880,130.7C2933.3,114,2987,180,3040,228.7C3093.3,278,3147,310,3200,277.7C3253.3,245,3307,147,3360,155.2C3413.3,163,3467,278,3520,334.8C3573.3,392,3627,392,3680,383.8C3733.3,376,3787,359,3813,351.2L3840,343L3840,490L3813.3,490C3786.7,490,3733,490,3680,490C3626.7,490,3573,490,3520,490C3466.7,490,3413,490,3360,490C3306.7,490,3253,490,3200,490C3146.7,490,3093,490,3040,490C2986.7,490,2933,490,2880,490C2826.7,490,2773,490,2720,490C2666.7,490,2613,490,2560,490C2506.7,490,2453,490,2400,490C2346.7,490,2293,490,2240,490C2186.7,490,2133,490,2080,490C2026.7,490,1973,490,1920,490C1866.7,490,1813,490,1760,490C1706.7,490,1653,490,1600,490C1546.7,490,1493,490,1440,490C1386.7,490,1333,490,1280,490C1226.7,490,1173,490,1120,490C1066.7,490,1013,490,960,490C906.7,490,853,490,800,490C746.7,490,693,490,640,490C586.7,490,533,490,480,490C426.7,490,373,490,320,490C266.7,490,213,490,160,490C106.7,490,53,490,27,490L0,490Z"/></svg>