<?xml version="1.0" encoding="UTF-8"?>
<svg xmlns="http://www.w3.org/2000/svg" xmlns:xlink="http://www.w3.org/1999/xlink" width="25px" height="25px" viewBox="0 0 25 25" version="1.1">
<g id="surface1">
<path style=" stroke:none;fill-rule:nonzero;fill:rgb(94.509804%,92.54902%,92.54902%);fill-opacity:1;" d="M 17.289062 14.582031 L 15.523438 13.746094 C 15.316406 13.628906 15.046875 13.671875 14.898438 13.847656 C 14.6875 14.0625 14.277344 14.6875 14.0625 14.898438 C 13.960938 15.105469 13.746094 15.105469 13.542969 15 C 12.816406 14.6875 12.082031 14.277344 11.457031 13.746094 C 10.914062 13.207031 10.425781 12.613281 10 11.980469 C 9.894531 11.773438 10 11.5625 10.101562 11.457031 C 10.210938 11.355469 10.3125 11.152344 10.519531 11.039062 C 10.628906 10.929688 10.703125 10.78125 10.722656 10.621094 C 10.835938 10.519531 10.835938 10.3125 10.722656 10.210938 C 10.621094 10.101562 10.101562 8.855469 9.894531 8.332031 C 9.792969 7.597656 9.589844 7.597656 9.375 7.597656 L 8.855469 7.597656 C 8.648438 7.597656 8.332031 7.8125 8.230469 7.914062 C 7.597656 8.539062 7.292969 9.273438 7.292969 10.101562 C 7.394531 11.039062 7.710938 11.980469 8.332031 12.816406 C 9.476562 14.480469 10.9375 15.839844 12.714844 16.667969 C 13.226562 16.871094 13.644531 17.085938 14.164062 17.1875 C 14.6875 17.402344 15.207031 17.402344 15.839844 17.289062 C 16.5625 17.1875 17.1875 16.667969 17.605469 16.042969 C 17.8125 15.625 17.8125 15.207031 17.707031 14.789062 L 17.289062 14.582031 M 19.894531 5.105469 C 17.945312 3.152344 15.304688 2.054688 12.554688 2.054688 C 9.796875 2.054688 7.15625 3.152344 5.207031 5.105469 C 1.878906 8.4375 1.246094 13.542969 3.542969 17.605469 L 2.082031 22.917969 L 7.597656 21.457031 C 9.160156 22.292969 10.835938 22.710938 12.5 22.710938 C 15.238281 22.722656 17.867188 21.636719 19.800781 19.699219 C 21.738281 17.765625 22.824219 15.136719 22.8125 12.398438 C 22.917969 9.691406 21.773438 7.085938 19.894531 5.105469 M 17.085938 19.6875 C 15.726562 20.527344 14.164062 21.039062 12.5 21.039062 C 10.9375 21.039062 9.476562 20.628906 8.128906 19.894531 L 7.8125 19.6875 L 4.585938 20.527344 L 5.414062 17.402344 L 5.207031 17.085938 C 2.707031 12.917969 3.960938 7.710938 8.027344 5.105469 C 12.082031 2.5 17.289062 3.851562 19.792969 7.8125 C 22.292969 11.875 21.148438 17.1875 17.085938 19.6875 "/>
</g>
</svg>
